<svg xmlns="http://www.w3.org/2000/svg" width="139" height="50" viewBox="0 0 139 50">
    <g fill="#FFF" fill-rule="evenodd">
        <path d="M1.4 48.118h136.011V1.388H1.4v46.73zM0 49.507h138.811V0H0v49.507z"/>
        <path d="M11.134 11.026h27.67v27.456H11.132l.003-27.456zm30-2.311H8.803L8.8 40.794h32.333V8.714z"/>
        <path d="M14.19 19.407h21.555V14.06H14.19zM14.19 35.447h5.389V30.1H14.19zM14.19 27.426h13.452v-5.362H14.19zM49.209 24.78h2.233V14.048h-2.233zM55.771 15.89v7.048h1.975c2.173 0 2.672-.822 2.672-3.56 0-2.919-.317-3.488-2.912-3.488H55.77zm2.278-1.84c3.409 0 4.633 1.466 4.633 5.312 0 3.697-1.298 5.418-4.649 5.418h-4.495V14.05h4.51zM64.414 14.05h7.604v1.84h-5.37v2.515h4.69v1.84h-4.69v4.535h-2.234zM82.427 21.248c-.15 2.094-1.327 3.77-4.662 3.77-3.258 0-4.901-1.6-4.901-5.55 0-3.862 1.552-5.658 4.918-5.658 2.654 0 4.282 1.123 4.645 3.577h-2.233c-.256-.959-.573-1.692-2.412-1.692-1.843 0-2.656 1.093-2.656 3.967 0 2.229.603 3.47 2.685 3.47 1.494 0 2.202-.463 2.383-1.884h2.233zM88.372 14.05h7.603v1.84h-5.372v2.515h4.692v1.84h-4.692v4.535h-2.231zM97.422 24.78h2.233V14.048h-2.233zM103.985 15.89v2.829h2.006c1.795 0 2.398-.18 2.398-1.528 0-1.076-.376-1.301-2.262-1.301h-2.142zm-2.233-1.84h4.691c2.247 0 4.21.06 4.21 3.217 0 2.095-.875 2.874-2.113 3.157l2.823 4.356h-2.718l-2.654-4.22h-2.006v4.22h-2.233V14.05zM114.183 21.413c.09 1.122.256 1.72 2.398 1.72 1.131 0 1.961-.163 1.961-1.256 0-.659-.302-1.018-1.251-1.273l-2.625-.702c-1.313-.345-2.475-.974-2.475-2.935 0-1.542.71-3.157 4.058-3.157 3.182 0 4.18 1.467 4.224 3.382h-2.233c-.105-.899-.15-1.497-2.082-1.497-1.13 0-1.705.21-1.705 1.062 0 .78.468 1.004 1.102 1.168l2.413.643c1.54.406 2.837 1.003 2.837 3.143 0 3.024-2.61 3.309-4.224 3.309-3.53 0-4.495-1.378-4.631-3.607h2.233zM124.591 15.934h-3.258V14.05h8.735v1.884h-3.244v8.846h-2.233zM51.441 36.152v2.83h2.008c2.035 0 2.488-.15 2.488-1.379 0-1.287-.423-1.45-2.051-1.45H51.44zm0-4.22v2.378h2.505c1.342 0 1.674-.163 1.674-1.27 0-.899-.211-1.109-2.097-1.109h-2.082zm3.048-1.841c2.127 0 3.287.749 3.287 2.783 0 1.661-.767 2.006-1.235 2.2 1.328.509 1.658 1.527 1.658 2.649 0 1.767-.815 3.099-3.801 3.099h-5.19V30.09h5.281zM64.37 37.184l-1.464.24c-.8.12-1.372.284-1.372 1.123 0 .598.3.927 1.235.927 1.283 0 1.6-.688 1.6-1.66v-.63zm-4.693-1.855c.107-2.035 1.282-2.59 3.425-2.59 2.203 0 3.365.584 3.365 2.305v5.778h-2.008v-.599c-.407.418-1.175.793-2.443.793-1.901 0-2.579-.839-2.579-2.185 0-1.751 1.145-2.41 2.307-2.59l2.625-.404v-.478c0-.733-.378-.943-1.358-.943-1.04 0-1.251.239-1.356.913h-1.978zM73.436 36.286c0-1.212-.015-1.84-1.358-1.84-1.493 0-1.659.778-1.659 2.633v3.742h-2.097v-7.887h1.992v1.018c.573-.763 1.19-1.213 2.655-1.213 2.035 0 2.563.868 2.563 3.263v4.82h-2.096v-4.536zM77.554 30.09h2.098v5.762l2.58-2.918h2.579l-2.777 2.994 2.883 4.893h-2.43l-1.93-3.428-.905.928v2.5h-2.098z"/>
    </g>
</svg>
