<svg xmlns="http://www.w3.org/2000/svg" width="19" height="20" viewBox="0 0 19 20">
    <g fill="none" fill-rule="evenodd">
        <path stroke="#58595B" d="M17.13 18.683V2.005c0-.096-.074-.172-.157-.172H.657c-.083 0-.157.076-.157.172v16.678c0 .096.074.172.157.172h16.316c.083 0 .157-.076.157-.172z"/>
        <path fill="#58595B" d="M0 5.499V2.005c0-.37.295-.672.657-.672h16.316c.362 0 .657.302.657.672V5.5"/>
        <path fill="#FFCB05" d="M3.945 3.263a.693.693 0 0 1-.684-.7V.7c0-.386.306-.699.684-.699.378 0 .684.313.684.699v1.864c0 .386-.306.7-.684.7M13.728 3.263a.693.693 0 0 0 .684-.7V.7A.692.692 0 0 0 13.728 0a.692.692 0 0 0-.685.699v1.864c0 .386.308.7.685.7"/>
        <path fill="#F3F3F3" d="M7.129 9.287H5.217V7.333H7.13zM9.738 9.287H7.826V7.333h1.912zM14.956 9.287h-1.913V7.333h1.913z"/>
        <path fill="#FFCB05" d="M7.129 11.955H5.217V10H7.13zM9.738 11.955H7.826V10h1.912z"/>
        <path fill="#DCDDDE" d="M4.523 11.958H2.61V10h1.914z"/>
        <path fill="#FFCB05" d="M14.955 11.955h-1.912V10h1.912z"/>
        <path fill="#F3F3F3" d="M7.129 14.62H5.217v-1.953H7.13z"/>
        <path fill="#DCDDDE" d="M4.52 14.62H2.61v-1.953H4.52z"/>
        <path fill="#F3F3F3" d="M9.738 14.622H7.826v-1.955h1.912zM14.955 14.622h-1.912v-1.955h1.912zM12.347 9.287h-1.912V7.333h1.912z"/>
        <path fill="#FFCB05" d="M12.346 11.955h-1.911V10h1.911z"/>
        <path fill="#F3F3F3" d="M12.346 14.622h-1.911v-1.955h1.911zM7.129 17.286H5.217v-1.953H7.13zM9.738 17.287H7.826v-1.954h1.912z"/>
        <path fill="#DCDDDE" d="M4.52 17.286H2.61v-1.953H4.52z"/>
    </g>
</svg>
