<svg xmlns="http://www.w3.org/2000/svg" width="20" height="10" viewBox="0 0 20 10">
    <g fill="none" fill-rule="nonzero">
        <path fill="#58595B" d="M1.96 4.38C2.24 2.91 3.62 1.9 5.12 1.9h2.93c.52 0 .95-.43.95-.95S8.57 0 8.05 0H5.22C2.61 0 .28 1.91.03 4.51A4.995 4.995 0 0 0 5 10h3.05c.52 0 .95-.43.95-.95s-.43-.95-.95-.95H5a3.11 3.11 0 0 1-3.04-3.72z"/>
        <path fill="#FFCB05" d="M7 6h6c.55 0 1-.45 1-1s-.45-1-1-1H7c-.55 0-1 .45-1 1s.45 1 1 1z"/>
        <path fill="#58595B" d="M14.78 0h-2.83c-.52 0-.95.43-.95.95s.43.95.95.95h2.93c1.5 0 2.88 1.01 3.16 2.48A3.11 3.11 0 0 1 15 8.1h-3.05c-.52 0-.95.43-.95.95s.43.95.95.95H15c2.92 0 5.26-2.51 4.98-5.49-.25-2.6-2.59-4.51-5.2-4.51z"/>
    </g>
</svg>
