<svg xmlns="http://www.w3.org/2000/svg" width="16" height="20" viewBox="0 0 16 20">
    <g fill="none" fill-rule="nonzero">
        <path fill="#58595B" d="M10.59.59C10.21.21 9.7 0 9.17 0H2C.9 0 0 .9 0 2v16c0 1.1.89 2 1.99 2H14c1.1 0 2-.9 2-2V6.83c0-.53-.21-1.04-.59-1.41L10.59.59zM11 16H5c-.55 0-1-.45-1-1s.45-1 1-1h6c.55 0 1 .45 1 1s-.45 1-1 1zm0-4H5c-.55 0-1-.45-1-1s.45-1 1-1h6c.55 0 1 .45 1 1s-.45 1-1 1z"/>
        <path fill="#FFCB05" d="M9 6V1.5L14.5 7H10c-.55 0-1-.45-1-1z"/>
    </g>
</svg>
