<svg xmlns="http://www.w3.org/2000/svg" width="43" height="40" viewBox="0 0 43 40">
    <g fill="none" fill-rule="evenodd" opacity=".5">
        <path fill="#FFF" fill-opacity=".91" d="M20 40C8.972 40 0 31.029 0 20.002 0 8.972 8.971 0 20 0s20 8.971 20 20.002C40 31.029 31.029 40 20 40"/>
        <path fill="#E8C9CA" d="M5.88 37.49c0-.017-.611-4.14-.668-7.316h-.054H7.87l-.41 7.317"/>
        <path fill="#C8C9CB" d="M5.341 23c2.412.046 4.212 3.484 2.512 10.93l-.03.126c.089-1.019.003-2.059-.495-2.788l.064-1.138H4.679h.054c-.03-1.718-.054-3.158-.054-3.523 0-1.817.268-2.911.662-3.607"/>
        <path fill="#E8C9CA" d="M10.22 10.141c.278 0 .547.036.804.104l-.003.03a2.834 2.834 0 0 1 4.831-1.393l1.631 1.675a1.335 1.335 0 0 0 1.76.3 1.411 1.411 0 0 1-2.408.756l.644.827 2.13 3.673-.133.323-2.457.908H17.028a.324.324 0 1 1 0 .648.323.323 0 1 1 0 .648h-.248a2.508 2.508 0 0 1-2.235 1.371l-2.233-.259c-.883 0-1.427.485-1.812 1.048v1.672s-1.01-.5-1.357-.647h-.001a1.676 1.676 0 0 1-.59-.227c-.365-.135-.894-.322-.894-.322l.5-.354c.694-2.808-.292-4.347-.68-5.868l-.387-1.245a3.167 3.167 0 0 1 3.128-3.668"/>
        <path fill="#9D1C28" d="M7.249 37.7l.872-3.516c1.857-8.132-.461-11.487-3.192-10.858l3.192-1.63c10.298 3.488 6.274 10.554 5.51 13.791V37.7H7.25z"/>
        <path fill="#9D1C28" d="M7.87 33.435v.002l-.04.19.04-.192"/>
        <path fill="#9D1C28" d="M7.344 31.478c.498.73.584 1.77.495 2.788l.03-.125-.872 3.516.347-6.179z"/>
        <path fill="#E8C9CA" d="M20.843 29.068l1.692-1.692.406-.406.234-.234-.234-.234-.002.002a.321.321 0 0 0-.437.028l-.405.405-.465.464c-.107.107-.276.113-.377.012-.1-.1-.096-.27.012-.377l1.085-1.085 1.085-1.084c.108-.109.113-.278.012-.379l-.182-.184-.195.195v.001l-.154.154c-2.14.325-3.477 1.942-4.012 2.476a1.37 1.37 0 0 0 1.937 1.938M7.517 31.478h1.005a29.065 29.065 0 0 1-.484 2.656l-.031.127c.088-1.015.004-2.052-.49-2.783"/>
        <path fill="#595A5C" d="M7.946 21.696l.277.09c10.17 3.5 6.169 10.53 5.408 13.756v2.213H7.25l.872-3.516c1.71-7.496-.124-10.932-2.56-10.932a2.79 2.79 0 0 0-.632.074l2.078-1.062.939-.623zm.244 1.053l-1.183-.43-.636.325s.454.057 1.209.417c.296.142.507.431.726.706 1.579 1.98 1.832 5.772.713 10.677l-.002.009-.002.008-.827 3.294h4.523V35.435l.024-.104c.11-.469.28-.997.458-1.556.552-1.725 1.238-3.87.78-5.875-.516-2.252-2.41-3.938-5.783-5.151z"/>
        <path fill="#C8C9CB" d="M10.459 22.764a.588.588 0 0 0 .027.014v-1.082c7.568 3.81 3.601 10.51 2.842 13.732.688-2.919 4.025-8.95-2.87-12.664M9.157 22.348l.001.001c.005.001.01.005.016.007l-.02-.008h.003"/>
        <path fill="#E8C9CA" d="M14.766 31.125l3.602-2.255 1.24.65-6.234 6.233v-.038l.396-1.33c.32-.96.72-2.076.996-3.26"/>
        <path fill="#F7D7C1" d="M13.946 33.625l.445-1.495c-.14.525-.296 1.026-.445 1.495"/>
        <path fill="#9D1C28" d="M5.777 37.446H3.34c1.354-1.354.36-5.649.36-6.688 0-4.984.672-7.06 1.373-7.642l.162-.082A2.695 2.695 0 0 1 5.717 23c-.394.696-.662 1.79-.662 3.607 0 .364.023 1.805.054 3.522h-.054.054c.057 3.176.668 7.3.668 7.317"/>
        <path stroke="#FFF" stroke-dasharray="0,0.9580000000000001" stroke-linecap="round" stroke-width=".605" d="M10.478 22.116c-.726.711-1.826 1.247-2.782-.42"/>
        <path fill="#595A5C" d="M2.1 18.06a3.538 3.538 0 1 0 7.075-.001 3.538 3.538 0 0 0-7.076 0"/>
        <path fill="#FFF" d="M11.775 14.788s1.303.915 2.631.919C15.995 15.712 17 14.49 17 14.49s-1.393-1.273-2.4-1.273c-1.094 0-2.825 1.57-2.825 1.57"/>
        <path fill="#595A5C" d="M10.303 9.893c.342 0 .668.015.972.073a2.907 2.907 0 0 1 4.857-1.063l1.671 1.716c.252.317.64.519 1.076.519.269 0 .518-.077.73-.21a1.447 1.447 0 0 1-1.43 1.213 1.61 1.61 0 0 1-1.096-.467 4.926 4.926 0 0 0-3.43-1.385c-.445 0-.892.048-1.33.136.356 2.288-2.09 3.668-4.075 3.668-.38 0-.746-.049-1.096-.14a3.251 3.251 0 0 1-.04-.513c0-1.794 1.397-3.547 3.19-3.547"/>
        <path fill="#595A5C" d="M13.288 10.29c-.454 0-.92.048-1.383.143l-.255.051.04.256c.114.735-.079 1.4-.573 1.978-.87 1.015-2.614 1.6-4.084 1.286a3.05 3.05 0 0 1-.014-.291c0-1.55 1.199-3.275 2.919-3.275.38 0 .673.021.922.068l.231.043.076-.222a2.635 2.635 0 0 1 4.403-.963l1.663 1.708c.368.454.96.677 1.531.591-.214.295-.561.48-.95.48-.315 0-.677-.155-.9-.386a5.195 5.195 0 0 0-3.626-1.467m-5.405 4.348c1.4 0 2.83-.615 3.646-1.567.535-.624.784-1.363.728-2.15a6.314 6.314 0 0 1 1.03-.087c1.216 0 2.368.465 3.241 1.309.32.328.826.544 1.287.544.847 0 1.562-.607 1.697-1.442l.097-.596-.51.322a1.129 1.129 0 0 1-1.449-.248l-.192.152.175-.172-1.672-1.717a3.18 3.18 0 0 0-5.227.95 6.173 6.173 0 0 0-.796-.042c-1.845 0-3.463 1.785-3.463 3.819 0 .188.015.375.043.556l.029.174.171.045c.379.1.77.15 1.165.15"/>
        <path fill="#595A5C" d="M17 13.894s-.251-.283-.707-.622a4.906 4.906 0 0 0-.842-.497c-.176-.054-.344-.145-.545-.17l-.303-.04c-.135.003-.197.017-.3.025l-.276.035c-.095.025-.192.059-.287.088-.095.03-.189.062-.28.095l-.245.129c-.165.08-.313.171-.443.273a2.848 2.848 0 0 0-.362.286c-.217.183-.368.368-.478.489-.105.127-.157.206-.157.206l.207-.153c.13-.098.322-.228.556-.373.114-.077.244-.146.381-.22.134-.082.283-.149.437-.213l.233-.103c.08-.02.159-.043.238-.069l.24-.072.277-.03c.083-.009.206-.029.255-.029l.246.028c.163.016.328.083.486.121.154.068.31.119.451.184.14.07.279.126.4.19.244.128.453.233.593.316l.225.126"/>
        <path fill="#595A5C" d="M15.848 14.252c.066 0 .117.051.117.117 0 .13-.235.13-.235 0 0-.066.052-.117.118-.117m0 .618a.5.5 0 1 0-.002-1.002.5.5 0 0 0 .002 1.002M10.584 15.174a.593.593 0 1 0 1.173.134.95.95 0 1 1-1.871.215"/>
        <path fill="#595A5C" d="M9.78 13.87h.698v1.842l-.698.349z"/>
        <path fill="#FFF" d="M8.794 16.668a.19.19 0 1 1 .38 0 .19.19 0 0 1-.38 0"/>
        <path fill="#595A5C" d="M8.732 15.233c0-.338.31-.645.647-.645s.61.274.61.61l.49-1.98H8.28l.452 2.015z"/>
        <path fill="#9D1C28" d="M17.326 18.433a.326.326 0 1 0 0-.65l-1.129.652.885.649.244.002a.326.326 0 1 0 0-.652"/>
        <path fill="#595A5C" d="M6.784 13.654a3.698 3.698 0 0 1 5.29-3.338c1.245.595-1.133.207-1.133 1.68 0 2.042-.429 1.007-2.47 1.007-.26 0 .072 1.757.404 2.98.193.71.432 1.179.432 1.179a3.7 3.7 0 0 1-2.523-3.508"/>
        <path fill="#E8C9CA" d="M13.64 34.789l2.337-.509.561-.123.324-.07.07.323-.002.001a.323.323 0 0 1-.26.353l-.56.121-.641.14c-.15.032-.246.172-.215.312.03.14.176.226.325.193l1.5-.326 1.499-.327a.267.267 0 0 1 .324.194l.055.252-.27.06-.213.045c-1.429 1.626-3.512 1.877-4.251 2.039a1.37 1.37 0 1 1-.583-2.678"/>
        <path fill="#E8C9CA" d="M13.832 37.345l-8.27-.023v.067l1.647-1.998 7.182.591"/>
        <g>
            <path fill="#9D1C28" d="M16.923 33.046c.004-1.915.008-3.685.013-3.768.099-1.741-.02-4.332-.02-4.332s2.938-.442 4.046-2.037l2.583-.142.786.738c1.606 1.59 4.993 2.206 4.993 2.206s.044 2.159.105 4.001c.005.146.007 4.53.007 4.68l-.01 3.504h-7.597a4.907 4.907 0 0 1-4.906-4.85"/>
            <path fill="#C8C9CB" d="M25.865 32.13v5.198c0-4.22-2.834-11.257-5.342-13.921-.01-.012.439-.498.439-.498s1.941-.162 2.582-.141l.764.71c1.73 1.468 1.557 4.267 1.557 8.652"/>
            <path fill="#9D1C28" d="M25.956 37.868l6.618-6.617 2.09 2.089-4.556 4.556z"/>
            <path fill="#E8C9CA" d="M23.545 22.767c.426-.624 1.03-1.162 2.009-1.162l2.447.287c1.082 0 2.02-.618 2.478-1.52h-.486.76a.359.359 0 0 0 0-.718.36.36 0 0 0 0-.719h-.003.024l2.725-1.007.146-.358-2.361-4.073-.715-.917a1.567 1.567 0 0 0 2.671-.838 1.482 1.482 0 0 1-1.953-.332L29.48 9.551a3.143 3.143 0 0 0-5.42 2.035l-.001.133.068-.657a3.513 3.513 0 0 0-4.36 3.952l.428 1.381c.429 1.686 1.538 3.392.768 6.506-.24.974 2.535 1.786 2.583-.135"/>
            <path fill="#FFF" d="M25.153 15.994s1.425 1 2.876 1.004c1.737.006 2.835-1.33 2.835-1.33s-1.523-1.391-2.622-1.391c-1.197 0-3.09 1.717-3.09 1.717"/>
            <path fill="#676767" d="M23.181 10.185c.344 0 .623.014.872.047a3.474 3.474 0 0 1 3.198-2.116c.96 0 1.854.383 2.515 1.077l2.028 2.083a1.204 1.204 0 0 0 1.402.087l.556-.348-.105.648a1.871 1.871 0 0 1-1.856 1.575 2.065 2.065 0 0 1-1.404-.594 5.076 5.076 0 0 0-3.544-1.43c-.372 0-.75.032-1.126.093.061.862-.211 1.67-.796 2.353-.891 1.039-2.456 1.712-3.986 1.712-.428 0-.857-.056-1.273-.164l-.187-.05-.031-.191a3.822 3.822 0 0 1-.047-.607c0-2.224 1.768-4.175 3.784-4.175M28.725 15.511a.327.327 0 1 1 .655 0 .327.327 0 1 1-.655 0"/>
            <path fill="#676767" d="M30.864 14.49s-.068-.078-.198-.202a5.728 5.728 0 0 0-.575-.479 4.976 4.976 0 0 0-.92-.543c-.185-.073-.378-.153-.595-.192a1.982 1.982 0 0 0-.332-.04l-.021-.002-.031.002-.038.002-.076.004-.152.008c-.108.014-.222.036-.331.055-.106.026-.207.058-.31.087a9.214 9.214 0 0 0-.29.113l-.273.134c-.086.048-.171.095-.253.144l-.23.156a6.751 6.751 0 0 0-.208.157c-.066.053-.126.107-.186.158a4.745 4.745 0 0 0-.522.537c-.114.139-.17.227-.17.227s.081-.063.226-.168c.144-.105.352-.25.606-.41.128-.08.268-.16.416-.244l.232-.121c.082-.035.162-.077.245-.116l.258-.104a8.19 8.19 0 0 0 .268-.088l.275-.069c.09-.014.177-.03.27-.043l.153-.01.075-.005.039-.003H28.23l.003-.001h-.01l.016.001c.089.007.178.006.268.026.18.026.36.08.533.137.17.065.337.128.493.2.155.071.303.14.437.209.134.07.258.133.366.191l.282.155.246.137"/>
            <path fill="#C8C9CB" d="M32.703 31.505c0-.15.017-.294.047-.435l1.26-1.261 1.5 2.003-.065.063a.397.397 0 0 0-.26.26l-1.246 1.247a2.045 2.045 0 0 1-1.236-1.877"/>
            <path fill="#E8C9CA" d="M35.92 28.271h2.083c.273 0 .494.207.494.463 0 .255-.221.462-.494.462h-1.249c-.227 0-.41.173-.411.385 0 .213.184.387.411.387h3.992c.227 0 .411.171.411.385 0 .212-.184.385-.411.385h-1.62 1.295c-.274.202-.576.346-.838.535-.333.24-1.016 1.077-2.268 1.098-.588.011-1.072-.013-1.394-.013a2.044 2.044 0 0 1 0-4.087"/>
            <path fill="#595A5C" d="M33.507 32.374a.37.37 0 1 1 .74 0 .37.37 0 0 1-.74 0"/>
            <path fill="#4E4E4E" d="M22.97 23.815l.097.122c.062.084.142.2.23.369.18.332.386.833.574 1.455.38 1.245.74 2.95.992 4.67.06.431.118.862.162 1.287l.136 1.248c.053.403.103.792.162 1.161l.155 1.04.136.882.11.681c.062.38.104.598.104.598h.074l.026-.158a6.89 6.89 0 0 0 .06-.447c.024-.193.042-.427.058-.696a17.112 17.112 0 0 0-.01-1.973c-.02-.378-.058-.776-.11-1.186a19.63 19.63 0 0 0-.215-1.255c-.086-.425-.17-.857-.266-1.286a40.621 40.621 0 0 0-.613-2.512 20.324 20.324 0 0 0-.712-2.141c-.244-.616-.492-1.113-.71-1.435a2.832 2.832 0 0 0-.276-.361l-.11-.112-.055.049z"/>
            <path fill="#9D1C28" d="M22.997 23.79l-2.035-.888-.287.354 2.187 1.295z"/>
            <path fill="#606161" d="M27.476 21.889c1.456.184 2.545-.619 3.004-1.52h-.486c-.644 0-.603-.764.09-.764.262 0 .674.037.674.037a.358.358 0 0 0 0-.716s-.242.003-.676.003c-.435 0-1.698.483-1.698 1.3 0 1.133-.908 1.66-.908 1.66"/>
            <path fill="#C8C9CB" d="M37.322 23.274c-1.714-1.002-3.43-2.002-5.145-3.002l.001.333.006 2.264.003 1.852v.268l2.71 1.649c.812.496 1.624.99 2.437 1.484l-.012-4.848z"/>
            <path fill="#676767" d="M37.334 28.122c.099-.057 3.589-2.064 5.23-3.019l-.01-4.412-.002-.503-5.23 3.086.012 4.848z"/>
            <path fill="#9D1C28" d="M37.31 17.178l-.624.374-4.509 2.72 5.145 3.001 5.225-3.084-.431-.249c-1.317-.756-2.634-1.512-3.95-2.27-.286-.163-.57-.328-.856-.492"/>
            <path fill="#FFC62F" d="M38.495 19.531c0 .185-.131.276-.393.276h-.094a.772.772 0 0 1 .004.094.982.982 0 0 1-.203.626.86.86 0 0 1-.546.321c.138.428.345.642.623.642a.88.88 0 0 0 .132-.01v.038c0 .08-.031.154-.092.22-.06.065-.15.098-.269.098-.4 0-.694-.343-.88-1.03-.241-.088-.361-.228-.361-.422 0-.075.026-.139.08-.19.052-.05.128-.077.226-.077.099 0 .187.041.267.122.08.08.141.181.186.3.261-.088.393-.287.393-.596a1.62 1.62 0 0 0-.01-.136h-1.39a.226.226 0 0 1-.02-.102c0-.179.131-.267.394-.267h.9a1.22 1.22 0 0 0-.263-.366h-1.012a.218.218 0 0 1-.018-.098c0-.178.13-.267.393-.267h1.94a.295.295 0 0 1 .013.089c0 .184-.131.276-.393.276h-.403c.094.106.169.228.225.366h.557a.419.419 0 0 1 .014.093"/>
        </g>
    </g>
</svg>
