<svg xmlns="http://www.w3.org/2000/svg" width="24" height="24" viewBox="0 0 24 24">
    <g fill="none" fill-rule="nonzero">
        <path fill="#FFF" stroke="#58595B" stroke-width="2" d="M12 1C5.928 1 1 5.928 1 12s4.928 11 11 11 11-4.928 11-11S18.072 1 12 1z"/>
        <path fill="#FFCB05" d="M14.546 16.243L12 13.697l-2.546 2.546a1.204 1.204 0 0 1-1.697 0 1.204 1.204 0 0 1 0-1.697L10.303 12 7.757 9.454a1.204 1.204 0 0 1 0-1.697 1.204 1.204 0 0 1 1.697 0L12 10.303l2.546-2.546a1.204 1.204 0 0 1 1.697 0c.466.467.466 1.23 0 1.697L13.697 12l2.546 2.546c.466.466.466 1.23 0 1.697a1.204 1.204 0 0 1-1.697 0z"/>
    </g>
</svg>
