<svg xmlns="http://www.w3.org/2000/svg" width="13" height="11" viewBox="0 0 13 11">
    <path fill="#FFCB05" fill-rule="evenodd" d="M10.448.352c-.283.096-.524.24-.785.369-.266.13-.505.286-.738.448-.236.163-.483.32-.692.51-.447.349-.853.737-1.249 1.133a19.166 19.166 0 0 0-2.058 2.603c-.29.465-.584.93-.842 1.411a.174.174 0 0 1-.011.025c-.335-.355-.681-.699-1.062-1.015-.217-.17-.423-.353-.656-.512-.228-.162-.47-.311-.711-.454a4.355 4.355 0 0 0-.796-.338 1.66 1.66 0 0 0-.44-.089c-.145-.024-.27.022-.408.042.113.074.26.104.351.203.096.091.173.149.261.25.176.177.316.394.47.587.293.407.55.847.82 1.274l.76 1.32c.25.438.51.892.736 1.315L4.243 11 5.32 9.338l1.663-2.561.851-1.271c.137-.215.286-.419.434-.622.142-.207.277-.427.433-.622.291-.41.59-.815.898-1.205.15-.204.31-.388.472-.578.162-.184.31-.39.488-.556.173-.168.335-.38.519-.528.181-.162.365-.341.56-.498.206-.121.409-.28.631-.43.228-.09.467-.206.73-.33A8.047 8.047 0 0 0 12.157 0c-.28.025-.576.044-.87.096-.28.07-.551.165-.84.256z"/>
</svg>
