<svg xmlns="http://www.w3.org/2000/svg" width="26" height="30" viewBox="0 0 26 30">
    <g fill="none" fill-rule="evenodd">
        <path fill="#FFF" d="M3 3.6h19.435v22.252H3z"/>
        <path fill="#BCBEC0" d="M24.6 1.8a.639.639 0 1 1 0 1.276M24.6 26.4a.638.638 0 1 1 0 1.276M1.239 1.8a.639.639 0 1 0 0 1.276M1.239 26.4a.638.638 0 1 0 0 1.276"/>
        <path fill="#676767" d="M17.894 20.757H7.678a.48.48 0 0 1 0-.957h10.216a.478.478 0 0 1 0 .957M17.894 23.157H7.678a.478.478 0 1 1 0-.957h10.216a.478.478 0 0 1 0 .957M17.894 7.558H7.678a.48.48 0 0 1 0-.958h10.216a.479.479 0 1 1 0 .958M17.894 9.357H7.678a.477.477 0 1 1 0-.957h10.216a.478.478 0 0 1 0 .957"/>
        <path fill="#BCBEC0" d="M23.858 0a.638.638 0 0 0-.638.637v.204H2.477V.637a.639.639 0 0 0-1.277 0v3.894a.64.64 0 0 0 1.277 0v-.204H23.22v.204a.639.639 0 0 0 1.276 0V.637A.638.638 0 0 0 23.858 0M23.858 24.6a.64.64 0 0 0-.638.638v.17H2.477v-.17a.638.638 0 0 0-1.277 0v3.895a.64.64 0 0 0 1.277 0v-.17H23.22v.17a.638.638 0 0 0 1.276 0v-3.895a.64.64 0 0 0-.638-.638"/>
        <path fill="#9D1C28" d="M14.953 16.753c1.217 0 .858-2.164 1.623-2.164-.765 0-.406-2.165-1.623-2.165 0-1.218-2.165-.858-2.165-1.624 0 .766-2.164.407-2.164 1.625-1.218 0-.858 2.164-1.624 2.164.766 0 .406 2.164 1.624 2.164 0 1.218 2.164.859 2.164 1.624 0-.765 2.165-.406 2.165-1.624"/>
        <path fill="#FECF0C" d="M13.5 15.021l.576-.578a1.08 1.08 0 0 0-1.527-1.527l-.834.833a1.082 1.082 0 0 0 .203 1.686l.446-.446a.491.491 0 0 1-.232-.824l.833-.832a.492.492 0 0 1 .695.695l-.245.243c.101.238.13.5.084.75"/>
        <path fill="#FECF0C" d="M11.693 14.214l-.578.577a1.082 1.082 0 0 0 0 1.528 1.082 1.082 0 0 0 1.529 0l.832-.833a1.082 1.082 0 0 0-.202-1.686l-.446.445a.491.491 0 0 1 .232.824l-.833.833a.49.49 0 1 1-.695-.694l.245-.245a1.317 1.317 0 0 1-.084-.749"/>
    </g>
</svg>
