<svg xmlns="http://www.w3.org/2000/svg" width="24" height="24" viewBox="0 0 24 24">
    <g fill="none" fill-rule="nonzero">
        <path fill="#FFF" stroke="#58595B" stroke-width="2" d="M12 1C5.928 1 1 5.928 1 12s4.928 11 11 11 11-4.928 11-11S18.072 1 12 1z"/>
        <path fill="#FFCB05" d="M16.8 13.2h-3.6v3.6c0 .66-.54 1.2-1.2 1.2-.66 0-1.2-.54-1.2-1.2v-3.6H7.2c-.66 0-1.2-.54-1.2-1.2 0-.66.54-1.2 1.2-1.2h3.6V7.2c0-.66.54-1.2 1.2-1.2.66 0 1.2.54 1.2 1.2v3.6h3.6c.66 0 1.2.54 1.2 1.2 0 .66-.54 1.2-1.2 1.2z"/>
    </g>
</svg>
