<svg xmlns="http://www.w3.org/2000/svg" width="96" height="90" viewBox="0 0 96 90">
    <g fill="none" fill-rule="evenodd">
        <path fill="#FFF" d="M45.001 90C20.185 90 0 69.815 0 45.004 0 20.185 20.185 0 45.001 0 69.815 0 90 20.185 90 45.004 90 69.814 69.815 90 45.001 90"/>
        <path fill="#E8C9CA" d="M13.231 84.354c0-.04-1.376-9.316-1.504-16.463h-.122 6.102l-.923 16.463"/>
        <path fill="#C8C9CB" d="M12.018 51.75c5.426.103 9.476 7.839 5.652 24.593l-.069.282c.2-2.292.008-4.63-1.113-6.273l.143-2.56H10.53h.121c-.067-3.864-.121-7.106-.121-7.926 0-4.09.603-6.55 1.489-8.116"/>
        <path fill="#E8C9CA" d="M22.994 22.817c.626 0 1.23.081 1.81.234l-.007.069c.585-2.917 3.156-5.12 6.247-5.12 1.818 0 3.46.762 4.623 1.984l3.67 3.77a3.005 3.005 0 0 0 3.96.675 3.175 3.175 0 0 1-3.135 2.666 3.181 3.181 0 0 1-2.283-.966l1.448 1.861 4.793 8.264-.298.727-5.53 2.044h.022a.729.729 0 1 1 0 1.459.728.728 0 1 1 0 1.456h-.559a5.643 5.643 0 0 1-5.028 3.085l-5.026-.583c-1.985 0-3.21 1.092-4.076 2.358v3.761s-2.273-1.124-3.053-1.454l-.003-.001c-.485-.09-.949-.27-1.326-.51-.822-.305-2.013-.726-2.013-.726l1.125-.797c1.563-6.317-.657-9.78-1.529-13.202l-.872-2.8a7.127 7.127 0 0 1 7.04-8.254"/>
        <path fill="#9D1C28" d="M16.31 84.825l1.963-7.91c4.178-18.3-1.039-25.847-7.183-24.431l7.183-3.669c23.169 7.85 14.115 23.748 12.398 31.031v4.979H16.31z"/>
        <path fill="#9D1C28" d="M17.707 75.228v.006c-.028.141-.06.283-.09.426.03-.144.062-.29.09-.432"/>
        <path fill="#9D1C28" d="M16.524 70.826c1.12 1.642 1.313 3.981 1.113 6.273l.07-.282-1.964 7.911.78-13.902z"/>
        <path fill="#E8C9CA" d="M46.897 65.404l3.806-3.808.913-.914.528-.527-.526-.527-.005.006c-.276-.239-.704-.217-.983.062l-.913.913v.001l-1.044 1.042c-.243.242-.621.255-.85.026-.226-.224-.214-.604.028-.846l2.442-2.442 2.441-2.44c.242-.244.254-.624.027-.851l-.411-.414-.437.439-.002.001-.346.346c-4.816.731-7.823 4.37-9.026 5.572a3.084 3.084 0 0 0-.002 4.361 3.086 3.086 0 0 0 4.36 0M16.913 70.826h2.26c-.244 1.85-.6 3.836-1.088 5.975l-.07.286c.2-2.284.01-4.617-1.102-6.26"/>
        <path fill="#595A5C" d="M17.878 48.815c.076.027.547.176.624.203 22.88 7.874 13.88 23.694 12.169 30.951v4.98H16.309l1.964-7.911c3.849-16.867-.28-24.598-5.761-24.598-.467 0-.942.055-1.422.167l4.676-2.389 2.112-1.403zm.549 2.37l-2.66-.967-1.431.73s1.021.128 2.719.938c.666.32 1.141.972 1.633 1.59 3.553 4.456 4.123 12.986 1.605 24.024l-.004.019-.005.017-1.86 7.412h10.175V79.73l.054-.235c.25-1.054.63-2.242 1.032-3.501 1.241-3.88 2.785-8.706 1.753-13.218-1.16-5.066-5.42-8.86-13.011-11.59z"/>
        <path fill="#C8C9CB" d="M23.532 51.219c.035.019.06.03.06.03v-2.434c17.03 8.573 8.105 23.65 6.397 30.898 1.548-6.567 9.055-20.136-6.457-28.494M20.603 50.284l.003.002c.01.002.024.01.035.014l-.044-.017.006.001"/>
        <path fill="#E8C9CA" d="M33.223 70.032l8.106-5.075 2.79 1.461-14.028 14.025v-.085l.892-2.99c.72-2.16 1.62-4.672 2.24-7.336"/>
        <path fill="#F7D7C1" d="M31.378 75.657l1.002-3.364a71.823 71.823 0 0 1-1.002 3.364"/>
        <path fill="#9D1C28" d="M13 84.253H7.514c3.047-3.045.812-12.71.812-15.047 0-11.214 1.51-15.884 3.087-17.195l.366-.185a6.065 6.065 0 0 1 1.083-.076c-.887 1.566-1.49 4.027-1.49 8.116 0 .819.053 4.06.122 7.924h-.122.122C11.623 74.936 13 84.213 13 84.253"/>
        <path stroke="#FFF" stroke-dasharray="0,0.9580000000000001" stroke-linecap="round" stroke-width=".605" d="M23.576 49.76c-1.635 1.601-4.109 2.806-6.26-.945"/>
        <path fill="#595A5C" d="M4.723 40.633a7.96 7.96 0 1 0 15.916 0 7.96 7.96 0 0 0-15.916 0"/>
        <path fill="#FFF" d="M26.493 33.273s2.934 2.058 5.921 2.067c3.575.012 5.836-2.738 5.836-2.738s-3.134-2.863-5.399-2.863c-2.463 0-6.358 3.534-6.358 3.534"/>
        <path fill="#595A5C" d="M23.181 22.258c.77 0 1.503.036 2.188.166a6.542 6.542 0 0 1 10.928-2.393l3.76 3.862v-.001a3.077 3.077 0 0 0 2.42 1.168c.605 0 1.166-.172 1.643-.471a3.255 3.255 0 0 1-3.215 2.729c-.916 0-1.876-.443-2.469-1.052a11.084 11.084 0 0 0-7.717-3.115c-1.002 0-2.007.108-2.99.306.798 5.148-4.705 8.251-9.171 8.251a9.751 9.751 0 0 1-2.466-.314 7.315 7.315 0 0 1-.09-1.154c0-4.036 3.143-7.982 7.18-7.982"/>
        <path fill="#595A5C" d="M29.898 23.153c-1.022 0-2.07.108-3.113.322l-.572.114.09.577c.256 1.652-.178 3.149-1.29 4.45-1.96 2.282-5.882 3.599-9.19 2.893a6.861 6.861 0 0 1-.03-.655c0-3.486 2.697-7.369 6.567-7.369.854 0 1.514.049 2.075.154l.52.097.17-.5a5.93 5.93 0 0 1 5.612-4.01c1.638 0 3.164.654 4.295 1.842l3.743 3.843a3.747 3.747 0 0 0 3.444 1.331 2.63 2.63 0 0 1-2.136 1.079c-.71 0-1.525-.348-2.028-.867a11.689 11.689 0 0 0-8.157-3.3m-12.162 9.781c3.15 0 6.37-1.384 8.204-3.525 1.205-1.404 1.764-3.066 1.64-4.839.778-.13 1.556-.194 2.318-.194 2.735 0 5.325 1.047 7.291 2.944.718.738 1.858 1.224 2.894 1.224a3.853 3.853 0 0 0 3.82-3.245l.217-1.34-1.148.725c-1.029.648-2.494.404-3.259-.559l-.431.342.393-.386-3.763-3.863A7.088 7.088 0 0 0 30.737 18a7.156 7.156 0 0 0-6.584 4.358 13.89 13.89 0 0 0-1.793-.097c-4.15 0-7.79 4.017-7.79 8.593 0 .423.033.844.096 1.25l.065.394.386.101c.85.225 1.731.336 2.619.336"/>
        <path fill="#595A5C" d="M38.25 31.26s-.565-.635-1.59-1.398a11.04 11.04 0 0 0-1.895-1.118c-.396-.122-.775-.327-1.227-.383l-.68-.09c-.306.007-.444.037-.674.056l-.622.078c-.215.057-.433.134-.647.2-.215.066-.425.14-.631.214l-.55.29c-.37.178-.704.385-.997.613-.305.21-.581.42-.814.644-.49.412-.83.827-1.076 1.1a6.116 6.116 0 0 0-.354.464l.465-.345c.292-.22.727-.512 1.254-.84.255-.172.548-.328.857-.495.3-.182.635-.333.983-.479.171-.076.346-.154.524-.23a9.2 9.2 0 0 0 .535-.156l.542-.162.622-.066c.185-.021.463-.066.574-.066l.553.061c.365.037.736.188 1.093.275.346.152.697.265 1.015.412.313.16.627.283.9.43.549.286 1.018.522 1.334.709.323.182.506.283.506.283"/>
        <path fill="#595A5C" d="M35.658 32.066c.148 0 .264.117.264.265 0 .293-.529.293-.529 0 0-.148.116-.265.265-.265m0 1.39a1.125 1.125 0 1 0 0-2.25 1.125 1.125 0 0 0 0 2.25M23.814 34.141c0 .746.603 1.35 1.348 1.35.639 0 1.148-.453 1.29-1.049.037.157.059.317.059.484a2.135 2.135 0 0 1-4.269 0"/>
        <path fill="#595A5C" d="M22.005 31.207h1.571v4.145l-1.571.785z"/>
        <path fill="#FFF" d="M19.787 37.503a.426.426 0 1 1 .853-.002.426.426 0 0 1-.853.002"/>
        <path fill="#595A5C" d="M19.648 34.273c0-.76.695-1.45 1.456-1.45.757 0 1.373.617 1.373 1.373l1.1-4.457H18.63l1.017 4.534z"/>
        <path fill="#9D1C28" d="M38.984 41.475a.732.732 0 1 0 0-1.464l-2.54 1.467 1.99 1.46.55.005a.733.733 0 1 0 0-1.467"/>
        <path fill="#595A5C" d="M15.265 30.722a8.321 8.321 0 0 1 8.321-8.32c1.282 0 2.497.288 3.58.809 2.802 1.338-2.55.466-2.55 3.78 0 4.596-.963 2.265-5.556 2.265-.587 0 .162 3.955.91 6.706.432 1.598.97 2.652.97 2.652a8.324 8.324 0 0 1-5.675-7.892"/>
        <path fill="#E8C9CA" d="M30.69 78.275l5.26-1.145 1.261-.276.728-.158.158.726-.004.003c.051.36-.2.709-.584.794l-1.263.273-1.441.315c-.336.072-.552.386-.483.7.069.316.395.51.73.436l3.374-.734 3.374-.735c.334-.075.66.123.729.436l.123.568-.604.132h-.002l-.48.104c-3.215 3.658-7.902 4.222-9.564 4.586a3.083 3.083 0 1 1-1.312-6.025"/>
        <path fill="#E8C9CA" d="M31.123 84.025l-18.61-.05v.15l3.707-4.495 16.16 1.33"/>
        <g>
            <path fill="#9D1C28" d="M38.077 74.355c.008-4.31.017-8.294.028-8.478.223-3.92-.043-9.749-.043-9.749s6.61-.995 9.103-4.583l5.81-.319 1.77 1.66c3.613 3.576 11.233 4.965 11.233 4.965s.1 4.856.237 9.002c.012.328.016 10.19.016 10.53l-.024 7.882H49.116c-6.055 0-10.97-4.873-11.04-10.91"/>
            <path fill="#C8C9CB" d="M58.197 72.293v11.695c0-9.496-6.376-25.328-12.02-31.323-.024-.026.988-1.12.988-1.12s4.367-.364 5.81-.318l1.717 1.597c3.892 3.305 3.505 9.602 3.505 19.469"/>
            <path fill="#9D1C28" d="M58.402 85.203L73.29 70.314l4.702 4.7-10.25 10.251z"/>
            <path fill="#E8C9CA" d="M52.976 51.227c.958-1.404 2.318-2.615 4.52-2.615l5.506.645a6.25 6.25 0 0 0 5.576-3.42h-1.094 1.712a.808.808 0 0 0 0-1.616.81.81 0 0 0 0-1.617h-.01.054l6.132-2.265.328-.806-5.312-9.164-1.608-2.064a3.525 3.525 0 0 0 6.01-1.886 3.334 3.334 0 0 1-4.394-.748l-4.068-4.18a7.072 7.072 0 0 0-12.193 4.58c-.005.097-.005.197-.005.298l.152-1.477a7.904 7.904 0 0 0-9.812 8.891l.967 3.108c.964 3.793 3.46 7.633 1.728 14.638-.543 2.192 5.704 4.019 5.81-.302"/>
            <path fill="#FFF" d="M56.594 35.986s3.206 2.25 6.471 2.26c3.907.012 6.38-2.993 6.38-2.993s-3.427-3.13-5.9-3.13c-2.694 0-6.951 3.863-6.951 3.863"/>
            <path fill="#676767" d="M52.158 22.916c.772 0 1.4.033 1.962.105a7.816 7.816 0 0 1 7.195-4.76c2.16 0 4.172.862 5.658 2.424l4.564 4.687a2.708 2.708 0 0 0 3.154.194l1.251-.781-.237 1.456a4.21 4.21 0 0 1-4.174 3.545c-1.13 0-2.376-.532-3.16-1.336a11.422 11.422 0 0 0-7.974-3.219c-.837 0-1.687.072-2.534.21.138 1.938-.475 3.755-1.791 5.293-2.005 2.338-5.526 3.853-8.968 3.853-.964 0-1.928-.126-2.864-.37l-.422-.11-.069-.431a8.599 8.599 0 0 1-.107-1.367c0-5.004 3.98-9.393 8.516-9.393M64.631 34.9c0-.408.328-.737.739-.737.406 0 .735.33.735.737a.737.737 0 1 1-1.474 0"/>
            <path fill="#676767" d="M69.444 32.603s-.152-.175-.447-.454a12.888 12.888 0 0 0-1.292-1.078 11.197 11.197 0 0 0-2.072-1.222c-.416-.166-.849-.345-1.336-.432a4.46 4.46 0 0 0-.748-.091l-.047-.003-.07.003-.086.005-.17.008-.343.02c-.243.03-.5.08-.745.123-.238.058-.466.13-.695.195a20.73 20.73 0 0 0-.656.255l-.613.3c-.193.109-.385.214-.569.325l-.515.35a15.19 15.19 0 0 0-.47.355c-.149.118-.284.241-.419.355-.526.461-.915.897-1.174 1.21-.258.311-.383.508-.383.508s.183-.142.509-.376c.324-.237.792-.562 1.363-.925.288-.18.603-.36.936-.548.17-.09.344-.18.522-.272.184-.08.365-.174.55-.262.193-.075.387-.153.583-.233.2-.06.4-.13.602-.199l.62-.153c.202-.032.396-.07.607-.098l.343-.023.17-.01.086-.007h.02l.011-.002H63.502l.036.002c.2.016.4.013.603.058.404.06.81.18 1.198.309.383.146.76.288 1.11.45.35.16.681.315.984.47.3.156.579.3.823.43l.635.348.553.31"/>
            <path fill="#C8C9CB" d="M73.581 70.886c0-.336.04-.662.107-.977l2.832-2.84 3.375 4.508-.143.142a.893.893 0 0 0-.586.584l-2.804 2.806a4.6 4.6 0 0 1-2.78-4.223"/>
            <path fill="#E8C9CA" d="M80.822 63.61H85.506c.615 0 1.111.466 1.113 1.04 0 .574-.498 1.042-1.113 1.042h-2.809c-.512 0-.925.388-.926.866 0 .48.414.87.926.87h8.982c.511 0 .924.386.924.866 0 .478-.413.867-.924.867h-3.644 2.912c-.617.454-1.295.779-1.885 1.204-.749.54-2.285 2.422-5.104 2.47-1.322.025-2.411-.029-3.136-.029a4.599 4.599 0 0 1 0-9.196"/>
            <path fill="#595A5C" d="M75.39 72.842a.833.833 0 1 1 1.668.001.833.833 0 0 1-1.667 0"/>
            <path fill="#4E4E4E" d="M51.68 53.584l.222.275c.139.188.318.45.517.83.402.746.868 1.873 1.292 3.274.856 2.8 1.664 6.638 2.23 10.507.135.97.267 1.939.366 2.896l.306 2.807c.12.907.231 1.783.363 2.613.125.83.24 1.616.349 2.341.112.726.216 1.392.306 1.983l.247 1.533c.14.853.235 1.344.235 1.344h.168l.058-.354c.039-.232.091-.572.136-1.005.053-.435.092-.961.13-1.568a40.178 40.178 0 0 0-.026-4.439 36.233 36.233 0 0 0-.244-2.668c-.126-.921-.29-1.867-.485-2.823-.193-.957-.385-1.93-.598-2.895a91.398 91.398 0 0 0-1.38-5.65c-.494-1.79-1.045-3.438-1.601-4.819-.55-1.385-1.107-2.504-1.6-3.23a6.372 6.372 0 0 0-.62-.81l-.246-.253-.125.11z"/>
            <path fill="#9D1C28" d="M51.743 53.528l-4.578-1.999-.647.798 4.922 2.912z"/>
            <path fill="#606161" d="M61.822 49.25c3.275.413 5.725-1.392 6.758-3.418h-1.094c-1.45 0-1.356-1.721.204-1.721.587 0 1.516.084 1.516.084a.805.805 0 0 0 0-1.611s-.545.005-1.521.005c-.979 0-3.822 1.087-3.822 2.925 0 2.55-2.041 3.736-2.041 3.736"/>
            <path fill="#C8C9CB" d="M83.975 52.366c-3.857-2.254-7.718-4.504-11.576-6.754l.002.749.014 5.095.007 4.167v.602l6.096 3.71c1.827 1.116 3.655 2.226 5.482 3.34l-.025-10.91z"/>
            <path fill="#676767" d="M84 63.275c.223-.13 8.076-4.644 11.769-6.793l-.022-9.927-.004-1.132-11.768 6.943.026 10.91z"/>
            <path fill="#9D1C28" d="M83.947 38.65l-1.404.843c-.961.578-10.144 6.118-10.144 6.118l11.576 6.754 11.756-6.94c-.323-.186-.645-.373-.97-.559-2.963-1.7-5.926-3.402-8.889-5.108-.643-.368-1.283-.737-1.925-1.107"/>
            <path fill="#FFC62F" d="M86.614 43.945c0 .416-.295.621-.885.621h-.211c.007.052.01.122.01.212 0 .547-.152 1.017-.458 1.407-.305.39-.714.632-1.227.723.309.963.776 1.444 1.401 1.444.099 0 .197-.007.296-.022v.085a.711.711 0 0 1-.207.496c-.136.147-.339.22-.605.22-.9 0-1.56-.771-1.982-2.318-.54-.197-.81-.513-.81-.95 0-.167.059-.311.179-.427.118-.114.289-.172.51-.172.221 0 .421.092.6.274.18.181.318.408.418.674.588-.197.884-.644.884-1.34 0-.063-.007-.164-.02-.306h-3.13a.509.509 0 0 1-.043-.23c0-.402.295-.601.885-.601h2.025a2.746 2.746 0 0 0-.592-.823h-2.276a.49.49 0 0 1-.042-.22c0-.402.295-.602.885-.602h4.364c.02.064.031.133.031.2 0 .415-.295.622-.885.622h-.906c.21.24.38.513.506.823h1.254c.02.083.031.155.031.21"/>
        </g>
    </g>
</svg>
