<svg xmlns="http://www.w3.org/2000/svg" width="24" height="24" viewBox="0 0 24 24">
    <g fill="none" fill-rule="evenodd">
        <path fill="#529D1D" fill-rule="nonzero" d="M12 0C5.376 0 0 5.376 0 12s5.376 12 12 12 12-5.376 12-12S18.624 0 12 0z"/>
        <path fill="#FFF" d="M16.448 7.352c-.283.096-.524.24-.785.369-.266.13-.505.286-.738.448-.236.163-.483.32-.692.51-.447.349-.853.737-1.249 1.133a19.166 19.166 0 0 0-2.058 2.603c-.29.465-.584.93-.842 1.411l-.011.025c-.335-.355-.681-.699-1.062-1.015-.217-.17-.423-.353-.656-.512-.228-.162-.47-.311-.711-.454a4.355 4.355 0 0 0-.796-.338 1.66 1.66 0 0 0-.44-.089c-.145-.024-.27.022-.408.042.113.074.26.104.351.203.096.091.173.149.261.25.176.177.316.394.47.587.293.407.55.847.82 1.274l.76 1.32c.25.438.51.892.736 1.315L10.243 18l1.078-1.662 1.663-2.561.851-1.271c.137-.215.286-.419.434-.622.142-.207.277-.427.433-.622.291-.41.59-.815.898-1.205.15-.204.31-.388.472-.578.162-.184.31-.39.488-.556.173-.168.335-.38.519-.528.181-.162.365-.341.56-.498.206-.121.409-.28.631-.43.228-.09.467-.206.73-.33A8.047 8.047 0 0 0 18.157 7c-.28.025-.576.044-.87.096-.28.07-.551.165-.84.256z"/>
    </g>
</svg>
