<svg xmlns="http://www.w3.org/2000/svg" width="85" height="103" viewBox="0 0 85 103">
    <g fill="none" fill-rule="evenodd">
        <path fill="#FFF" d="M9 13h67v77H9z"/>
        <path fill="#BCBEC0" d="M83 6a2 2 0 0 1 0 4M83 92a2 2 0 1 1 0 4M2 6a2 2 0 0 0 0 4M2 92a2 2 0 1 0 0 4"/>
        <path fill="#676767" d="M60.335 72H24.67c-.922 0-1.67-.675-1.67-1.503 0-.826.748-1.497 1.67-1.497h35.665c.92 0 1.665.671 1.665 1.497 0 .828-.746 1.503-1.665 1.503M60.335 80H24.67c-.922 0-1.67-.67-1.67-1.495 0-.832.748-1.505 1.67-1.505h35.665c.92 0 1.665.673 1.665 1.505C62 79.33 61.254 80 60.335 80M60.335 26H24.67c-.922 0-1.67-.675-1.67-1.504 0-.825.748-1.496 1.67-1.496h35.665c.92 0 1.665.671 1.665 1.496 0 .83-.746 1.504-1.665 1.504M60.335 32H24.67c-.922 0-1.67-.668-1.67-1.495 0-.832.748-1.505 1.67-1.505h35.665c.92 0 1.665.673 1.665 1.505 0 .827-.746 1.495-1.665 1.495"/>
        <path fill="#BCBEC0" d="M80.782 0a2.22 2.22 0 0 0-2.22 2.219v.71H6.443v-.71A2.216 2.216 0 0 0 4.221 0 2.223 2.223 0 0 0 2 2.219v13.56C2 17.003 3 18 4.222 18c1.23 0 2.22-.997 2.22-2.221v-.71h72.12v.71c0 1.224.996 2.221 2.22 2.221A2.222 2.222 0 0 0 83 15.779V2.219A2.22 2.22 0 0 0 80.782 0M80.782 85c-1.224 0-2.22 1-2.22 2.223v.593H6.443v-.593A2.221 2.221 0 0 0 4.221 85C2.999 85 2 86 2 87.223v13.559C2 102.006 3 103 4.222 103c1.23 0 2.22-.994 2.22-2.218v-.592h72.12v.592a2.22 2.22 0 0 0 2.22 2.218A2.22 2.22 0 0 0 83 100.782v-13.56A2.225 2.225 0 0 0 80.782 85"/>
        <path fill="#9D1C28" d="M49.428 58.427c4.178 0 2.945-7.426 5.572-7.426-2.627 0-1.394-7.428-5.572-7.428 0-4.18-7.427-2.946-7.427-5.573 0 2.627-7.427 1.396-7.427 5.575-4.18 0-2.947 7.426-5.574 7.426 2.627 0 1.394 7.426 5.574 7.426C34.574 62.604 42 61.373 42 64c0-2.627 7.427-1.396 7.427-5.573"/>
        <path fill="#FECF0C" d="M45.014 52.54l1.929-2.038c1.41-1.486 1.41-3.902 0-5.388a3.48 3.48 0 0 0-5.104 0l-2.785 2.94c-1.405 1.485-1.405 3.902 0 5.387.209.218.435.407.678.559l1.49-1.572a1.598 1.598 0 0 1-.775-.457 1.802 1.802 0 0 1 0-2.449l2.783-2.937a1.584 1.584 0 0 1 2.322 0c.64.675.64 1.771 0 2.45l-.818.86c.336.838.43 1.76.28 2.645"/>
        <path fill="#FECF0C" d="M38.985 49.46l-1.93 2.037c-1.406 1.488-1.406 3.905 0 5.389a3.483 3.483 0 0 0 5.106 0l2.783-2.938c1.408-1.486 1.408-3.903 0-5.391A3.546 3.546 0 0 0 44.27 48l-1.492 1.57c.285.075.553.223.776.46.64.675.64 1.774 0 2.449l-2.785 2.936c-.64.677-1.68.677-2.32 0a1.803 1.803 0 0 1 0-2.45l.818-.86a4.884 4.884 0 0 1-.28-2.645"/>
    </g>
</svg>
