<svg xmlns="http://www.w3.org/2000/svg" width="19" height="19" viewBox="0 0 19 19">
    <g fill="none" fill-rule="nonzero">
        <circle cx="4.053" cy="9.053" r="1.053" fill="#FFCB05"/>
        <circle cx="15.053" cy="9.053" r="1.053" fill="#FFCB05"/>
        <path fill="#58595B" d="M9.474 0C8.894 0 8.42.474 8.42 1.053v2.105c0 .579.474 1.053 1.053 1.053s1.052-.474 1.052-1.053v-.969c3.485.506 6.18 3.422 6.316 7.011.147 4.053-3.19 7.579-7.242 7.642a7.364 7.364 0 0 1-7.495-7.368c0-1.769.621-3.39 1.663-4.653L8.726 9.79a1.048 1.048 0 1 0 1.485-1.484L4.484 2.59c-.4-.4-1.052-.41-1.473-.02A9.372 9.372 0 0 0 0 9.473c0 5.305 4.358 9.6 9.695 9.473 4.947-.115 9.084-4.22 9.242-9.168C19.116 4.41 14.81 0 9.474 0z"/>
    </g>
</svg>
