<svg xmlns="http://www.w3.org/2000/svg" width="30" height="29" viewBox="0 0 30 29">
    <g fill="none" fill-rule="evenodd">
        <g>
            <rect width="8" height="29" fill="#FFF" rx="2"/>
            <rect width="4" height="9" x="2" y="3" fill="#9D1C28" rx="1"/>
            <rect width="6" height="1" x="1" y="15" fill="#676767" rx=".5"/>
            <rect width="6" height="1" x="1" y="17" fill="#676767" rx=".5"/>
            <rect width="6" height="1" x="1" y="19" fill="#676767" rx=".5"/>
            <circle cx="4" cy="25" r="2" fill="#C7C8CA"/>
        </g>
        <g transform="translate(11)">
            <rect width="8" height="29" fill="#E2E3E3" rx="2"/>
            <rect width="4" height="9" x="2" y="3" fill="#9D1C28" rx="1"/>
            <rect width="6" height="1" x="1" y="15" fill="#676767" rx=".5"/>
            <rect width="6" height="1" x="1" y="17" fill="#676767" rx=".5"/>
            <rect width="6" height="1" x="1" y="19" fill="#676767" rx=".5"/>
            <circle cx="4" cy="25" r="2" fill="#C7C8CA"/>
        </g>
        <g transform="translate(22)">
            <rect width="8" height="29" fill="#FFF" rx="2"/>
            <rect width="4" height="9" x="2" y="3" fill="#9D1C28" rx="1"/>
            <rect width="6" height="1" x="1" y="15" fill="#676767" rx=".5"/>
            <rect width="6" height="1" x="1" y="17" fill="#676767" rx=".5"/>
            <rect width="6" height="1" x="1" y="19" fill="#676767" rx=".5"/>
            <circle cx="4" cy="25" r="2" fill="#C7C8CA"/>
        </g>
    </g>
</svg>
