<svg xmlns="http://www.w3.org/2000/svg" width="20" height="18" viewBox="0 0 20 18">
    <g fill="#9C9EA0" fill-rule="nonzero">
        <path d="M9.836 6.12l2.86 2.888.013-.151c0-1.518-1.22-2.752-2.723-2.752l-.15.014z"/>
        <path d="M9.986 4.271c2.505 0 4.539 2.055 4.539 4.586 0 .592-.118 1.156-.322 1.674l2.655 2.683a10.889 10.889 0 0 0 3.118-4.357c-1.575-4.026-5.447-6.879-9.99-6.879-1.271 0-2.487.23-3.618.642L8.33 4.597a4.521 4.521 0 0 1 1.657-.326zM.908 1.772l2.07 2.09.413.418A10.854 10.854 0 0 0 0 8.857c1.57 4.026 5.447 6.879 9.986 6.879 1.407 0 2.75-.275 3.98-.775l.386.39L17 18.029l1.157-1.165L2.066.602.907 1.772zm5.02 5.067l1.403 1.417c-.041.197-.069.395-.069.601 0 1.518 1.221 2.752 2.724 2.752.204 0 .4-.028.59-.07l1.402 1.418a4.429 4.429 0 0 1-1.992.486c-2.506 0-4.54-2.055-4.54-4.586 0-.725.182-1.403.482-2.018z"/>
    </g>
</svg>
