<svg xmlns="http://www.w3.org/2000/svg" width="20" height="14" viewBox="0 0 20 14">
    <g fill="#9C9EA0" fill-rule="nonzero">
        <path d="M9.986 4.113a2.726 2.726 0 0 0-2.724 2.724A2.726 2.726 0 0 0 9.986 9.56a2.726 2.726 0 0 0 2.723-2.723 2.726 2.726 0 0 0-2.723-2.724z"/>
        <path d="M9.986.028C5.446.028 1.57 2.852 0 6.837c1.57 3.985 5.447 6.808 9.986 6.808 4.543 0 8.415-2.823 9.986-6.808C18.402 2.852 14.529.028 9.986.028zm0 11.348a4.54 4.54 0 0 1-4.54-4.54 4.54 4.54 0 0 1 4.54-4.538 4.54 4.54 0 0 1 4.539 4.539 4.54 4.54 0 0 1-4.54 4.539z"/>
    </g>
</svg>
